<?xml version="1.0" encoding="iso-8859-1"?>
<!-- Uploaded to: SVG Repo, www.svgrepo.com, Generator: SVG Repo Mixer Tools -->
<svg height="800px" width="800px" version="1.1" id="Layer_1" xmlns="http://www.w3.org/2000/svg" xmlns:xlink="http://www.w3.org/1999/xlink" 
	 viewBox="0 0 512 512" xml:space="preserve">
<path style="fill:#FFFFFF;" d="M494.933,256c0,128.853-102.571,234.24-230.4,238.677v-195.84
	c25.088,0.939,74.069,9.301,156.416,83.029c1.621,1.365,3.669,2.133,5.717,2.133c1.792,0,3.669-0.597,5.205-1.792
	c3.243-2.475,4.267-6.997,2.389-10.667l-170.667-332.8c-2.901-5.632-12.288-5.632-15.189,0l-170.667,332.8
	c-1.877,3.669-0.853,8.192,2.389,10.667c3.243,2.56,7.851,2.389,10.923-0.341c82.347-73.728,131.328-82.091,156.416-83.029v195.84
	C119.637,490.24,17.067,384.853,17.067,256C17.067,124.245,124.245,17.067,256,17.067S494.933,124.245,494.933,256z"/>
<path d="M256,0C114.859,0,0,114.859,0,256s114.859,256,256,256s256-114.859,256-256S397.141,0,256,0z M247.467,281.685
	c-23.552,0.768-66.901,7.168-135.339,60.245L247.467,77.995V281.685z M264.533,494.677v-195.84
	c25.088,0.939,74.069,9.301,156.416,83.029c1.621,1.365,3.669,2.133,5.717,2.133c1.792,0,3.669-0.597,5.205-1.792
	c3.243-2.475,4.267-6.997,2.389-10.667l-170.667-332.8c-2.901-5.632-12.288-5.632-15.189,0l-170.667,332.8
	c-1.877,3.669-0.853,8.192,2.389,10.667c3.243,2.56,7.851,2.389,10.923-0.341c82.347-73.728,131.328-82.091,156.416-83.029v195.84
	C119.637,490.24,17.067,384.853,17.067,256C17.067,124.245,124.245,17.067,256,17.067S494.933,124.245,494.933,256
	C494.933,384.853,392.363,490.24,264.533,494.677z M264.533,281.685V77.995l135.339,263.936
	C331.435,288.853,288.085,282.453,264.533,281.685z"/>
<path style="fill:#5E35B1;" d="M247.467,77.995v203.691c-23.552,0.768-66.901,7.168-135.339,60.245L247.467,77.995z"/>
<path style="fill:#311B92;" d="M399.872,341.931c-68.437-53.077-111.787-59.477-135.339-60.245V77.995L399.872,341.931z"/>
<g>
	<path style="fill:#F4F4F4;" d="M420.949,381.867c-82.347-73.728-131.328-82.091-156.416-83.029v17.067
		c25.088,0.939,74.069,9.301,156.416,83.029c1.621,1.365,3.669,2.133,5.717,2.133c1.792,0,3.669-0.597,5.205-1.792
		c3.243-2.475,4.267-6.997,2.389-10.667l-3.089-6.025c-1.4,0.887-2.961,1.417-4.506,1.417
		C424.619,384,422.571,383.232,420.949,381.867z"/>
	<path style="fill:#F4F4F4;" d="M80.828,382.583l-3.089,6.025c-1.877,3.669-0.853,8.192,2.389,10.667
		c3.243,2.56,7.851,2.389,10.923-0.341c82.347-73.728,131.328-82.091,156.416-83.029v-17.067
		c-25.088,0.939-74.069,9.301-156.416,83.029C88.183,384.418,84.011,384.632,80.828,382.583z"/>
</g>
</svg>