<?xml version="1.0" encoding="iso-8859-1"?>
<!-- Uploaded to: SVG Repo, www.svgrepo.com, Generator: SVG Repo Mixer Tools -->
<svg version="1.1" id="Layer_1" xmlns="http://www.w3.org/2000/svg" xmlns:xlink="http://www.w3.org/1999/xlink" 
	 viewBox="0 0 512 512" xml:space="preserve">
<rect x="268.114" y="378.638" style="fill:#2D2E30;" width="34.305" height="95.528"/>
<rect x="268.114" y="378.638" style="fill:#57565C;" width="17.153" height="95.528"/>
<path style="fill:#2D2E30;" d="M285.274,401.265c-58.889,0-117.778-22.416-162.609-67.247
	C79.23,290.584,55.31,232.835,55.31,171.409S79.23,52.234,122.665,8.8c3.217-3.217,7.579-5.025,12.128-5.025
	c4.549,0,8.911,1.808,12.128,5.025l300.959,300.96c6.699,6.699,6.699,17.559,0,24.257
	C403.05,378.85,344.162,401.265,285.274,401.265z M135.32,45.714c-64.462,76.792-60.598,191.848,11.602,264.048
	c72.199,72.198,187.256,76.064,264.047,11.602L135.32,45.714z"/>
<path style="fill:#797882;" d="M366.776,501.522c0-23.57-19.107-42.677-42.677-42.677h-77.652c-23.57,0-42.677,19.107-42.677,42.677
	c0,5.786,4.691,10.477,10.477,10.477h142.05C362.084,512,366.776,507.309,366.776,501.522z"/>
<path style="fill:#3E3E42;" d="M324.099,458.846h-38.825V512h71.025c5.786,0,10.477-4.691,10.477-10.477
	C366.776,477.953,347.669,458.846,324.099,458.846z"/>
<path style="fill:#797882;" d="M134.794,3.777c-4.549,0-8.911,1.807-12.128,5.025C79.23,52.235,55.31,109.983,55.31,171.409
	s23.92,119.174,67.355,162.609c44.831,44.831,103.719,67.247,162.609,67.247v-34.301c-50.105,0-100.209-19.062-138.352-57.204
	C74.724,237.562,70.86,122.505,135.32,45.714l149.952,149.954v-48.514L146.922,8.8C143.705,5.584,139.343,3.777,134.794,3.777z"/>
<circle style="fill:#227AA0;" cx="285.278" cy="171.411" r="171.411"/>
<path style="fill:#5EC5EA;" d="M164.068,50.204c-66.94,66.94-66.94,175.47,0,242.409c33.469,33.469,77.338,50.204,121.205,50.204V0
	C241.405,0,197.538,16.735,164.068,50.204z"/>
<path style="fill:#0E5872;" d="M406.478,50.204c-23.882-23.882-53.06-39.237-83.753-46.079c-2.871,8.844-6.928,19.397-11.457,25.284
	c-8.779,11.413-23.596,32.401-21.056,46.947c3.015,17.268,8.766,35.819,46.516,32.064c14.087-1.401,55.308,2.633,47.406,19.314
	c-7.902,16.68-74.007,23.47-53.551,55.308c28.092,43.727,50.918,6.718,70.232,23.111s7.023,34.83,4.39,46.242
	c-1.222,5.297,8.994,11.983,20.294,17.628C472.658,203.133,466.324,110.05,406.478,50.204z"/>
<path style="fill:#227AA0;" d="M122.077,223.942c13.818,17.969,26.652,23.952,41.501,27.339c33.44,7.625,37.074-5.029,66.39-0.639
	s10.732,46.537,33.015,60.575c10.509,6.62,12.803-36.232,11.046-59.936c-1.756-23.704-15.116-31.37-29.483-33.122
	c-29.986-3.657-50.041-55.308-55.833-75.5c-5.792-20.192,29.496-33.361,40.909-67.598c6.784-20.354-2.254-45.05-10.7-61.733
	c-19.939,8.36-38.622,20.644-54.855,36.877C117.063,97.209,103.068,164.722,122.077,223.942z"/>
</svg>