<?xml version="1.0" encoding="iso-8859-1"?>
<!-- Uploaded to: SVG Repo, www.svgrepo.com, Generator: SVG Repo Mixer Tools -->
<svg height="800px" width="800px" version="1.1" id="Layer_1" xmlns="http://www.w3.org/2000/svg" xmlns:xlink="http://www.w3.org/1999/xlink" 
	 viewBox="0 0 512 512" xml:space="preserve">
<path style="fill:#43B05B;" d="M264.828,388.414c0-67.972,55.614-123.586,123.586-123.586c34.428,0,66.207,14.124,88.276,37.076V0H0
	v476.69h301.903C278.952,454.621,264.828,422.841,264.828,388.414"/>
<path style="fill:#F0CE49;" d="M387.531,264.828C387.531,264.828,388.414,264.828,387.531,264.828
	c35.31,0,67.09,14.124,89.159,37.076v-63.559L384,148.303l92.69-91.807V0h-56.497L176.552,243.641V0h-70.621v105.931H0v70.621
	h105.931v137.71L92.69,327.503L0,420.193v56.497h56.497l271.007-271.007L387.531,264.828z"/>
<path style="fill:#444C6D;" d="M512,388.414c0-67.972-55.614-123.586-123.586-123.586s-123.586,55.614-123.586,123.586
	S320.441,512,388.414,512S512,456.386,512,388.414"/>
<g>
	<path style="fill:#B3ADD5;" d="M406.069,441.379h-61.793c-5.297,0-8.828-3.531-8.828-8.828s3.531-8.828,8.828-8.828h61.793
		c15.007,0,26.483-11.476,26.483-26.483c0-5.297,3.531-8.828,8.828-8.828s8.828,3.531,8.828,8.828
		C450.207,421.959,430.786,441.379,406.069,441.379z"/>
	<path style="fill:#B3ADD5;" d="M370.759,467.862c-2.648,0-4.414-0.883-6.179-2.648l-26.483-26.483
		c-3.531-3.531-3.531-8.828,0-12.359l26.483-26.483c3.531-3.531,8.828-3.531,12.359,0c3.531,3.531,3.531,8.828,0,12.359
		l-20.303,20.303l20.303,20.303c3.531,3.531,3.531,8.828,0,12.359C375.172,466.979,373.407,467.862,370.759,467.862z"/>
	<path style="fill:#B3ADD5;" d="M335.448,388.414c-5.297,0-8.828-3.531-8.828-8.828c0-24.717,19.421-44.138,44.138-44.138h61.793
		c5.297,0,8.828,3.531,8.828,8.828s-3.531,8.828-8.828,8.828h-61.793c-15.007,0-26.483,11.476-26.483,26.483
		C344.276,384.883,340.745,388.414,335.448,388.414z"/>
	<path style="fill:#B3ADD5;" d="M406.069,379.586c-2.648,0-4.414-0.883-6.179-2.648c-3.531-3.531-3.531-8.828,0-12.359
		l20.303-20.303l-20.303-20.303c-3.531-3.531-3.531-8.828,0-12.359c3.531-3.531,8.828-3.531,12.359,0l26.483,26.483
		c3.531,3.531,3.531,8.828,0,12.359l-26.483,26.483C410.483,378.703,408.717,379.586,406.069,379.586z"/>
</g>
</svg>