<?xml version="1.0" encoding="iso-8859-1"?>
<!-- Uploaded to: SVG Repo, www.svgrepo.com, Generator: SVG Repo Mixer Tools -->
<svg fill="#000000" height="800px" width="800px" version="1.1" id="Layer_1" xmlns="http://www.w3.org/2000/svg" xmlns:xlink="http://www.w3.org/1999/xlink" 
	 viewBox="0 0 495.996 495.996" xml:space="preserve">
<g>
	<g>
		<path d="M298.904,228.856H198.392c-6.376,0-11.564,5.252-11.564,11.624c0,6.376,5.188,11.624,11.564,11.624h100.512
			c6.376,0,11.56-5.248,11.56-11.624C310.46,234.112,305.276,228.856,298.904,228.856z"/>
	</g>
</g>
<g>
	<g>
		<path d="M494.844,81.336c-0.928-0.744-1.976-1.016-3.14-0.728l-161.436,39.028l-161.58-76.968
			c-0.028-0.016-0.036-0.008-0.056-0.024c-0.168-0.076-0.348-0.088-0.52-0.136c-0.216-0.06-0.412-0.12-0.632-0.152
			c-0.112-0.012-0.224-0.044-0.34-0.044c-0.028,0-0.048-0.016-0.08-0.016c-0.156,0-0.288,0.068-0.444,0.084
			c-0.148,0.024-0.288-0.024-0.436,0.016L3.152,80.612C1.4,81.016,0,82.576,0,84.376v326.788c0,1.188,0.708,2.308,1.64,3.044
			c0.688,0.544,1.62,0.832,2.484,0.832c0.296,0,0.64-0.032,0.932-0.104l161.548-38.432l161.636,76.924
			c0.06,0.024,0.124-0.084,0.184-0.056c0.468,0.2,0.968,0.236,1.48,0.236h-0.532v0.092c0,0,0.876,0.012,1.168-0.056l162.672-38.732
			c1.752-0.412,2.784-1.944,2.784-3.748V84.376C496,83.188,495.784,82.068,494.844,81.336z M248.416,351.872
			c-59.836,0-108.344-48.512-108.344-108.356c0-59.836,48.508-108.348,108.344-108.348c59.84,0,108.352,48.512,108.352,108.348
			C356.764,303.36,308.252,351.872,248.416,351.872z"/>
	</g>
</g>
</svg>