<?xml version="1.0" encoding="iso-8859-1"?>
<!-- Uploaded to: SVG Repo, www.svgrepo.com, Generator: SVG Repo Mixer Tools -->
<svg fill="#000000" height="800px" width="800px" version="1.1" id="Layer_1" xmlns="http://www.w3.org/2000/svg" xmlns:xlink="http://www.w3.org/1999/xlink" 
	 viewBox="0 0 512 512" xml:space="preserve">
<g>
	<g>
		<path d="M384,224.981v-25.6h-26.889c-1.186-9.387-3.174-18.517-6.716-26.931l22.852-13.193l-12.8-22.178l-23.202,13.397
			c-5.623-7.39-12.177-13.943-19.567-19.567l13.389-23.194l-22.153-12.8l-13.201,22.852c-8.414-3.55-17.545-5.53-26.931-6.716
			v-26.88h-25.6v26.889c-9.387,1.186-18.509,3.166-26.931,6.716l-13.201-22.852l-22.153,12.8l13.389,23.194
			c-7.39,5.623-13.943,12.177-19.567,19.567l-23.202-13.397l-12.8,22.178l22.852,13.193c-3.541,8.414-5.53,17.536-6.716,26.923H128
			v25.6h26.889c1.186,9.378,3.166,18.509,6.716,26.923l-22.852,13.193l12.8,22.178l23.202-13.397
			c5.623,7.39,12.177,13.943,19.567,19.567l-13.389,23.194l22.153,12.8l13.193-22.852c8.414,3.55,17.545,5.53,26.931,6.716v26.889
			h25.6v-26.889c9.387-1.186,18.517-3.166,26.931-6.716l13.193,22.852l22.153-12.8l-13.389-23.194
			c7.39-5.623,13.943-12.177,19.567-19.567l23.202,13.397l12.8-22.178l-22.852-13.193c3.541-8.414,5.53-17.536,6.716-26.923H384z
			 M256,288.973c-42.351,0-76.8-34.449-76.8-76.8s34.449-76.8,76.8-76.8c42.351,0,76.8,34.449,76.8,76.8
			C332.8,254.515,298.351,288.973,256,288.973z"/>
	</g>
</g>
<g>
	<g>
		<path d="M406.033,62.148C364.604,20.719,310.306,0,256,0c-54.298,0-108.604,20.719-150.033,62.148
			c-82.859,82.859-82.859,217.208,0,300.066C106.803,363.051,256,512,256,512s149.197-148.949,150.033-149.786
			C488.892,279.356,488.892,145.007,406.033,62.148z M387.917,344.09c-0.845,0.845-92.194,92.041-131.917,131.703
			c-39.723-39.663-131.072-130.859-131.908-131.695c-72.738-72.738-72.738-191.095,0-263.834
			C159.326,45.03,206.174,25.626,256,25.626c49.835,0,96.683,19.405,131.917,54.639C460.655,153.003,460.655,271.36,387.917,344.09z
			"/>
	</g>
</g>
</svg>