<?xml version="1.0" encoding="iso-8859-1"?>
<!-- Uploaded to: SVG Repo, www.svgrepo.com, Generator: SVG Repo Mixer Tools -->
<svg height="800px" width="800px" version="1.1" id="Layer_1" xmlns="http://www.w3.org/2000/svg" xmlns:xlink="http://www.w3.org/1999/xlink" 
	 viewBox="0 0 512 512" xml:space="preserve">
<path style="fill:#88CC2A;" d="M256,512c-5.718,0-11.032-2.924-14.098-7.756L100.804,281.761
	c-18.619-29.354-28.456-63.283-28.456-98.109C72.348,82.386,154.739,0,256,0s183.652,82.386,183.652,183.652
	c0,34.826-9.837,68.755-28.456,98.109L270.098,504.244C267.032,509.076,261.718,512,256,512z"/>
<path style="fill:#7FB335;" d="M270.098,504.244L411.196,281.76c18.619-29.353,28.456-63.282,28.456-98.108
	C439.652,82.386,357.261,0,256,0v512C261.718,512,267.032,509.076,270.098,504.244z"/>
<path style="fill:#FFFFFF;" d="M356.174,123.548c-14.805-24.71-38.623-43.52-66.783-51.868c-10.574-3.228-21.816-4.897-33.391-4.897
	s-22.817,1.67-33.391,4.897c-28.16,8.348-51.978,27.158-66.783,51.868c-10.574,17.586-16.696,38.066-16.696,60.104
	c0,64.445,52.424,116.87,116.87,116.87s116.87-52.424,116.87-116.87C372.87,161.614,366.748,141.134,356.174,123.548z"/>
<path style="fill:#EDF0F2;" d="M372.87,183.652c0,64.445-52.424,116.87-116.87,116.87V66.783c11.576,0,22.817,1.67,33.391,4.897
	c28.16,8.348,51.978,27.158,66.783,51.868C366.748,141.134,372.87,161.614,372.87,183.652z"/>
<path style="fill:#E6563A;" d="M289.391,71.68v50.755c0,18.477-14.916,33.391-33.391,33.391s-33.391-14.915-33.391-33.391V71.68
	c10.574-3.228,21.816-4.897,33.391-4.897S278.817,68.452,289.391,71.68z"/>
<path style="fill:#FFE14D;" d="M222.609,71.68v50.755c0,18.477-14.916,33.391-33.391,33.391c-18.143,0-32.835-14.358-33.391-32.278
	C170.631,98.838,194.449,80.028,222.609,71.68z"/>
<path style="fill:#FFCC33;" d="M356.157,123.519c-0.57,17.972-15.262,32.307-33.375,32.307c-18.475,0-33.391-14.915-33.391-33.391
	V71.68c28.16,8.348,51.978,27.158,66.783,51.868L356.157,123.519z"/>
<path style="fill:#D9472B;" d="M289.391,122.435V71.68c-10.574-3.228-21.816-4.897-33.391-4.897v89.043
	C274.475,155.826,289.391,140.911,289.391,122.435z"/>
</svg>