<?xml version="1.0" encoding="iso-8859-1"?>
<!-- Uploaded to: SVG Repo, www.svgrepo.com, Generator: SVG Repo Mixer Tools -->
<svg height="800px" width="800px" version="1.1" id="Capa_1" xmlns="http://www.w3.org/2000/svg" xmlns:xlink="http://www.w3.org/1999/xlink" 
	 viewBox="0 0 465.959 465.959" xml:space="preserve">
<g>
	<g>
		<g>
			<path style="fill:#010002;" d="M52.334,0v361.271H165.99l66.965,104.687l66.965-104.687h113.705V0H52.334z M344.257,287.419
				v0.029l-20.723,13.454c-13.278,9.057-69.837,19.013-146.25-74.507c-73.638-90.11-52.134-139.713-42.129-151.115l17.195-17.704
				c4.064-3.39,10.132-2.931,13.561,1.212l44.747,53.472v0.029c3.283,3.908,3.117,9.995-1.202,13.629v0.039l-20.048,14.284
				c-7.933,7.787-1.114,20.127,6.888,32.066l38.143,45.5c17.762,17.313,27.493,25.344,36.042,19.677l16.658-18.387
				c4.084-3.39,10.093-2.941,13.571,1.212l44.747,53.433v0.078C348.722,277.707,348.546,283.784,344.257,287.419z"/>
		</g>
	</g>
</g>
</svg>