<svg width="21" height="21" viewBox="0 0 21 21" fill="none" xmlns="http://www.w3.org/2000/svg">
<path d="M19.684 8.51404C19.641 8.34704 19.465 8.26201 19.3 8.31201C18.741 8.47901 18.139 8.53895 17.52 8.47595C15.613 8.28395 13.986 6.825 13.597 4.948C13.387 3.934 13.526 2.968 13.897 2.146C13.968 1.988 13.906 1.79903 13.746 1.73303C12.593 1.25503 11.325 1 9.99902 1C4.38402 1 -0.154973 5.63503 0.003027 11.285C0.148027 16.502 4.49703 20.85 9.71403 20.996C15.364 21.154 19.999 16.615 19.999 11C20 10.141 19.89 9.30504 19.684 8.51404ZM12.203 14.869C11.798 15.274 11.283 15.521 10.728 15.601V16C10.728 16.414 10.392 16.75 9.97803 16.75C9.56403 16.75 9.22803 16.414 9.22803 16V15.599C8.08503 15.413 7.17803 14.492 7.04403 13.306C6.99803 12.894 7.29402 12.5231 7.70602 12.4771C8.11802 12.4251 8.48803 12.727 8.53503 13.139C8.59903 13.709 9.07903 14.139 9.65103 14.139H10.351C10.649 14.139 10.93 14.022 11.143 13.809C11.356 13.596 11.473 13.315 11.473 13.017C11.473 12.502 11.123 12.055 10.622 11.928L9.01404 11.5291C8.44404 11.3841 7.93603 11.053 7.58003 10.594C7.22603 10.146 7.02803 9.57199 7.02803 8.98499C7.02803 7.68399 7.98303 6.60901 9.22803 6.40601V6C9.22803 5.586 9.56403 5.25 9.97803 5.25C10.392 5.25 10.728 5.586 10.728 6V6.396C11.892 6.565 12.822 7.49197 12.957 8.69397C13.003 9.10597 12.707 9.47695 12.295 9.52295C11.884 9.57295 11.512 9.27296 11.466 8.86096C11.402 8.29096 10.922 7.86096 10.35 7.86096H9.65002C9.03102 7.86096 8.52803 8.36403 8.52803 8.98303C8.52803 9.23403 8.61103 9.47797 8.76103 9.66797C8.91903 9.87197 9.13103 10.01 9.37903 10.072L10.987 10.4709C12.157 10.7669 12.973 11.813 12.973 13.015C12.972 13.715 12.699 14.373 12.203 14.869ZM20.53 4.53003L18.53 6.53003C18.461 6.59903 18.378 6.65402 18.286 6.69202C18.194 6.73002 18.097 6.75 17.999 6.75C17.901 6.75 17.804 6.73002 17.712 6.69202C17.62 6.65402 17.537 6.59903 17.468 6.53003L15.468 4.53003C15.175 4.23703 15.175 3.76199 15.468 3.46899C15.761 3.17599 16.236 3.17599 16.529 3.46899L17.249 4.18896V1C17.249 0.586 17.585 0.25 17.999 0.25C18.413 0.25 18.749 0.586 18.749 1V4.18896L19.469 3.46899C19.762 3.17599 20.237 3.17599 20.53 3.46899C20.823 3.76199 20.823 4.23703 20.53 4.53003Z" fill="#121212"/>
</svg>
