<svg width="21" height="21" viewBox="0 0 21 21" fill="none" xmlns="http://www.w3.org/2000/svg">
<path d="M20.53 3.53002C20.384 3.67602 20.192 3.74999 20 3.74999C19.808 3.74999 19.616 3.67702 19.47 3.53002L18.75 2.81005V5.99999C18.75 6.41399 18.414 6.74999 18 6.74999C17.586 6.74999 17.25 6.41399 17.25 5.99999V2.81103L16.53 3.531C16.237 3.824 15.762 3.824 15.469 3.531C15.176 3.238 15.176 2.76296 15.469 2.46996L17.469 0.469964C17.538 0.400964 17.621 0.345977 17.713 0.307977C17.896 0.231977 18.103 0.231977 18.286 0.307977C18.378 0.345977 18.461 0.400964 18.53 0.469964L20.53 2.46996C20.823 2.76296 20.823 3.23702 20.53 3.53002ZM20 11C20 16.615 15.365 21.154 9.715 20.996C4.498 20.851 0.150004 16.502 0.00400356 11.285C-0.153996 5.63503 4.38501 0.999993 10 0.999993C11.327 0.999993 12.594 1.25503 13.747 1.73303C13.907 1.79903 13.969 1.98799 13.898 2.14599C13.527 2.96799 13.388 3.93399 13.598 4.94799C13.986 6.82499 15.614 8.28395 17.521 8.47595C18.14 8.53795 18.741 8.479 19.301 8.31201C19.466 8.26301 19.642 8.34803 19.685 8.51403C19.89 9.30503 20 10.141 20 11ZM12.972 13.017C12.972 11.815 12.157 10.769 10.986 10.473L9.37801 10.074C9.13001 10.012 8.919 9.87304 8.76 9.67004C8.61 9.48004 8.527 9.23598 8.527 8.98498C8.527 8.36598 9.03001 7.86303 9.64901 7.86303H10.349C10.921 7.86303 11.4 8.29303 11.465 8.86303C11.511 9.27503 11.882 9.57502 12.294 9.52502C12.706 9.47902 13.002 9.10804 12.956 8.69604C12.821 7.49404 11.891 6.56694 10.727 6.39794V5.99999C10.727 5.58599 10.391 5.24999 9.97701 5.24999C9.56301 5.24999 9.22701 5.58599 9.22701 5.99999V6.40405C7.98201 6.60805 7.027 7.68203 7.027 8.98303C7.027 9.57003 7.224 10.144 7.579 10.592C7.935 11.051 8.44301 11.383 9.01301 11.527L10.621 11.926C11.122 12.053 11.472 12.501 11.472 13.015C11.472 13.313 11.355 13.594 11.142 13.807C10.929 14.02 10.648 14.137 10.35 14.137H9.65C9.078 14.137 8.599 13.707 8.534 13.137C8.488 12.725 8.11601 12.423 7.70501 12.475C7.29301 12.521 6.997 12.8919 7.043 13.3039C7.176 14.4909 8.08401 15.412 9.22701 15.597V16C9.22701 16.414 9.56301 16.75 9.97701 16.75C10.391 16.75 10.727 16.414 10.727 16V15.602C11.282 15.521 11.797 15.275 12.202 14.87C12.699 14.373 12.972 13.715 12.972 13.017Z" fill="#121212"/>
</svg>
