<?xml version="1.0" encoding="UTF-8"?>
<svg xmlns="http://www.w3.org/2000/svg" xmlns:xlink="http://www.w3.org/1999/xlink" width="32px" height="32px" viewBox="0 0 32 32" version="1.1">
<g id="surface1">
<path style=" stroke:none;fill-rule:nonzero;fill:rgb(0%,0%,0%);fill-opacity:1;" d="M 31.078125 15.449219 L 31.433594 15.179688 L 31.433594 13.476562 L 31.078125 13.214844 L 31.078125 12.550781 L 32 11.8125 L 31.078125 11.230469 C 24.871094 6.984375 13.710938 7.773438 13.710938 7.773438 C 11.074219 7.773438 6.042969 13.839844 6.042969 13.839844 C 6.042969 13.839844 3.164062 14.324219 1.277344 15.453125 C -0.605469 16.582031 0.148438 21.105469 0.148438 21.105469 L 3.070312 21.105469 C 3.070312 19.234375 4.585938 17.714844 6.460938 17.714844 C 8.332031 17.714844 9.851562 19.234375 9.851562 21.105469 L 23.839844 21.105469 C 23.839844 19.234375 25.359375 17.714844 27.230469 17.714844 C 29.101562 17.714844 30.621094 19.234375 30.621094 21.105469 L 31.078125 21.105469 L 31.078125 20.074219 L 31.644531 19.453125 L 31.644531 17.199219 L 31.078125 16.445312 Z M 2.796875 17.078125 L 1.230469 17.078125 L 1.230469 16.085938 L 2.796875 16.085938 Z M 17.886719 13.460938 L 8.453125 13.460938 C 8.453125 13.460938 11.8125 9.199219 13.410156 9.199219 C 15.007812 9.199219 17.886719 9.199219 17.886719 9.199219 Z M 19.148438 13.476562 L 19.148438 9.09375 C 19.148438 9.09375 25.667969 9.320312 28.085938 13.476562 Z M 19.148438 13.476562 "/>
<path style=" stroke:none;fill-rule:nonzero;fill:rgb(0%,0%,0%);fill-opacity:1;" d="M 6.414062 17.925781 C 4.660156 17.925781 3.238281 19.351562 3.238281 21.105469 C 3.238281 22.859375 4.660156 24.28125 6.414062 24.28125 C 8.164062 24.28125 9.589844 22.859375 9.589844 21.105469 C 9.59375 19.351562 8.164062 17.925781 6.414062 17.925781 Z M 6.414062 23.574219 C 5.050781 23.574219 3.945312 22.46875 3.945312 21.101562 C 3.945312 19.742188 5.050781 18.636719 6.414062 18.636719 C 7.773438 18.636719 8.882812 19.742188 8.882812 21.101562 C 8.882812 22.464844 7.773438 23.574219 6.414062 23.574219 Z M 6.414062 23.574219 "/>
<path style=" stroke:none;fill-rule:nonzero;fill:rgb(0%,0%,0%);fill-opacity:1;" d="M 27.167969 17.925781 C 25.417969 17.925781 23.992188 19.351562 23.992188 21.105469 C 23.992188 21.203125 24.011719 21.292969 24.019531 21.386719 L 10.0625 21.386719 L 10.0625 22.375 L 24.023438 22.375 L 24.023438 21.414062 C 24.183594 23.019531 25.523438 24.28125 27.167969 24.28125 C 28.921875 24.28125 30.347656 22.855469 30.347656 21.101562 C 30.347656 19.351562 28.921875 17.925781 27.167969 17.925781 Z M 27.167969 23.574219 C 25.808594 23.574219 24.699219 22.46875 24.699219 21.101562 C 24.699219 19.742188 25.804688 18.636719 27.167969 18.636719 C 28.53125 18.636719 29.636719 19.742188 29.636719 21.101562 C 29.636719 22.464844 28.53125 23.574219 27.167969 23.574219 Z M 27.167969 23.574219 "/>
</g>
</svg>
