<svg enable-background="new 0 0 512 512" viewBox="0 0 512 512" xmlns="http://www.w3.org/2000/svg"><path d="m0 106.7h512v298.7h-512z" fill="#cb2127"/><g fill="#f7de28"><path d="m49.3 214.8 9.6-29.8-25.3-18.5 31.3-.1 9.8-29.7 9.7 29.7 31.3.1-25.3 18.5 9.6 29.8-25.3-18.4z"/><path d="m136.6 230.9 10.6 4.2 7.3-8.7-.8 11.4 10.6 4.3-11.1 2.8-.8 11.3-6.1-9.6-11 2.7 7.3-8.8z"/><path d="m193.8 173.6-11.2-1.9-5.4 10-1.6-11.3-11.2-2 10.2-5-1.6-11.3 8 8.2 10.2-5-5.3 10.1z"/><path d="m170 224.6 3.5-10.8-9.2-6.7h11.4l3.5-10.9 3.5 10.9h11.4l-9.2 6.7 3.5 10.8-9.2-6.6z"/><path d="m137.1 125.7 10.4 4.7 7.8-8.3-1.4 11.3 10.3 4.9-11.2 2.2-1.4 11.3-5.5-10-11.2 2.2 7.7-8.4z"/></g></svg>