<svg enable-background="new 0 0 512 512" viewBox="0 0 512 512" xmlns="http://www.w3.org/2000/svg"><path d="m0 106.7h512v298.7h-512z" fill="#2c2a7c"/><g fill="#fff"><path d="m134.7 289.6 7.8 24.3 23.8-9-14.1 21.2 21.9 12.9-25.4 2.3 3.5 25.2-17.5-18.5-17.5 18.5 3.5-25.2-25.4-2.3 21.9-12.9-14.1-21.2 23.8 9z"/><path d="m404.1 333.3 3.7 11.5 11.3-4.3-6.7 10.1 10.5 6.2-12.1 1 1.6 12-8.3-8.8-8.4 8.8 1.7-12-12.1-1 10.5-6.2-6.8-10.1 11.4 4.3z"/><path d="m336.7 226.6 3.8 11.6 11.3-4.3-6.7 10.1 10.4 6.1-12.1 1.1 1.7 12-8.4-8.8-8.3 8.8 1.7-12-12.1-1.1 10.4-6.1-6.7-10.1 11.3 4.3z"/><path d="m404.1 153.7 3.7 11.5 11.3-4.3-6.7 10.1 10.5 6.2-12.1 1.1 1.6 12-8.3-8.8-8.4 8.8 1.7-12-12.1-1.1 10.5-6.2-6.8-10.1 11.4 4.3z"/><path d="m464 208.7 3.7 11.5 11.3-4.3-6.7 10.1 10.4 6.2-12.1 1.1 1.7 12-8.3-8.8-8.4 8.8 1.7-12-12.1-1.1 10.4-6.2-6.7-10.1 11.3 4.3z"/><path d="m431 262.7 3 7.2 7.7.6-5.9 5 1.8 7.5-6.6-4.1-6.6 4.1 1.9-7.5-5.9-5 7.7-.6z"/><path d="m112.2 106.7v44.9h-112.2v44.9h112.2v44.9h44.9v-44.9h112.3v-44.9h-112.3v-44.9z"/><path d="m0 106.7v15l239.3 119.7h30.1v-15.1l-239.3-119.6z"/><path d="m239.3 106.7-239.3 119.6v15.1h30.1l239.3-119.7v-15z"/></g><path d="m121.2 106.7v53.8h-121.2v27h121.2v53.9h27v-53.9h121.2v-27h-121.2v-53.8z" fill="#e91e26"/><path d="m0 106.7v10l69.7 34.8h20.1zm249.3 0-89.8 44.9h20.1l89.8-44.9z" fill="#e91e26"/><path d="m89.8 196.5-89.8 44.9h20.1l89.8-44.9zm89.8 0 89.8 44.9v-10l-69.7-34.9z" fill="#e91e26"/></svg>