<svg enable-background="new 0 0 512 512" viewBox="0 0 512 512" xmlns="http://www.w3.org/2000/svg"><path d="m0 382.4h512v23h-512z" fill="#cb001c"/><path d="m0 359.4h512v23h-512z" fill="#fff"/><path d="m0 336.4h512v23h-512z" fill="#cb001c"/><path d="m0 313.4h512v23h-512z" fill="#fff"/><path d="m0 290.5h512v23h-512z" fill="#cb001c"/><path d="m0 267.5h512v23h-512z" fill="#fff"/><path d="m0 244.5h512v23h-512z" fill="#cb001c"/><path d="m0 221.5h512v23h-512z" fill="#fff"/><path d="m0 198.6h512v23h-512z" fill="#cb001c"/><path d="m0 175.6h512v23h-512z" fill="#fff"/><path d="m0 152.6h512v23h-512z" fill="#cb001c"/><path d="m0 129.6h512v23h-512z" fill="#fff"/><path d="m0 106.7h512v23h-512z" fill="#cb001c"/><path d="m0 106.7h233.8v160.8h-233.8z" fill="#2a3560"/><g fill="#fff"><path d="m21.1 124.4 2 6.1h6.3l-5.1 3.7 1.9 6.1-5.1-3.8-5.2 3.8 2-6.1-5.2-3.7h6.4z"/><path d="m21.1 151.2 2 6.1h6.3l-5.1 3.8 1.9 6-5.1-3.7-5.2 3.7 2-6-5.2-3.8h6.4z"/><path d="m21.1 178.1 2 6.1h6.3l-5.1 3.7 1.9 6.1-5.1-3.8-5.2 3.8 2-6.1-5.2-3.7h6.4z"/><path d="m21.1 204.9 2 6.1h6.3l-5.1 3.8 1.9 6-5.1-3.7-5.2 3.7 2-6-5.2-3.8h6.4z"/><path d="m21.1 231.8 2 6h6.3l-5.1 3.8 1.9 6.1-5.1-3.8-5.2 3.8 2-6.1-5.2-3.8h6.4z"/><path d="m39.8 138.5 2 6.1h6.3l-5.1 3.8 1.9 6-5.1-3.7-5.2 3.7 2-6-5.2-3.8h6.4z"/><path d="m39.8 165.4 2 6h6.3l-5.1 3.8 1.9 6.1-5.1-3.8-5.2 3.8 2-6.1-5.2-3.8h6.4z"/><path d="m39.8 192.2 2 6.1h6.3l-5.1 3.8 1.9 6-5.1-3.7-5.2 3.7 2-6-5.2-3.8h6.4z"/><path d="m39.8 219.1 2 6h6.3l-5.1 3.8 1.9 6.1-5.1-3.8-5.2 3.8 2-6.1-5.2-3.8h6.4z"/><path d="m58.7 124.4 2 6.1h6.4l-5.2 3.7 2 6.1-5.2-3.8-5.2 3.8 2-6.1-5.2-3.7h6.4z"/><path d="m58.7 151.2 2 6.1h6.4l-5.2 3.8 2 6-5.2-3.7-5.2 3.7 2-6-5.2-3.8h6.4z"/><path d="m58.7 178.1 2 6.1h6.4l-5.2 3.7 2 6.1-5.2-3.8-5.2 3.8 2-6.1-5.2-3.7h6.4z"/><path d="m58.7 204.9 2 6.1h6.4l-5.2 3.8 2 6-5.2-3.7-5.2 3.7 2-6-5.2-3.8h6.4z"/><path d="m58.7 231.8 2 6h6.4l-5.2 3.8 2 6.1-5.2-3.8-5.2 3.8 2-6.1-5.2-3.8h6.4z"/><path d="m77.4 138.5 2 6.1h6.4l-5.2 3.8 2 6-5.2-3.7-5.2 3.7 2-6-5.2-3.8h6.4z"/><path d="m77.4 165.4 2 6h6.4l-5.2 3.8 2 6.1-5.2-3.8-5.2 3.8 2-6.1-5.2-3.8h6.4z"/><path d="m77.4 192.2 2 6.1h6.4l-5.2 3.8 2 6-5.2-3.7-5.2 3.7 2-6-5.2-3.8h6.4z"/><path d="m77.4 219.1 2 6h6.4l-5.2 3.8 2 6.1-5.2-3.8-5.2 3.8 2-6.1-5.2-3.8h6.4z"/><path d="m96.3 124.4 2 6.1h6.4l-5.2 3.7 2 6.1-5.2-3.8-5.1 3.8 2-6.1-5.2-3.7h6.4z"/><path d="m96.3 151.2 2 6.1h6.4l-5.2 3.8 2 6-5.2-3.7-5.1 3.7 2-6-5.2-3.8h6.4z"/><path d="m96.3 178.1 2 6.1h6.4l-5.2 3.7 2 6.1-5.2-3.8-5.1 3.8 2-6.1-5.2-3.7h6.4z"/><path d="m96.3 204.9 2 6.1h6.4l-5.2 3.8 2 6-5.2-3.7-5.1 3.7 2-6-5.2-3.8h6.4z"/><path d="m96.3 231.8 2 6h6.4l-5.2 3.8 2 6.1-5.2-3.8-5.1 3.8 2-6.1-5.2-3.8h6.4z"/><path d="m115 138.5 2 6.1h6.4l-5.2 3.8 2 6-5.2-3.7-5.1 3.7 1.9-6-5.1-3.8h6.4z"/><path d="m115 165.4 2 6h6.4l-5.2 3.8 2 6.1-5.2-3.8-5.1 3.8 1.9-6.1-5.1-3.8h6.4z"/><path d="m115 192.2 2 6.1h6.4l-5.2 3.8 2 6-5.2-3.7-5.1 3.7 1.9-6-5.1-3.8h6.4z"/><path d="m115 219.1 2 6h6.4l-5.2 3.8 2 6.1-5.2-3.8-5.1 3.8 1.9-6.1-5.1-3.8h6.4z"/><path d="m134 124.4 2 6.1h6.3l-5.1 3.7 1.9 6.1-5.1-3.8-5.2 3.8 2-6.1-5.2-3.7h6.4z"/><path d="m134 151.2 2 6.1h6.3l-5.1 3.8 1.9 6-5.1-3.7-5.2 3.7 2-6-5.2-3.8h6.4z"/><path d="m134 178.1 2 6.1h6.3l-5.1 3.7 1.9 6.1-5.1-3.8-5.2 3.8 2-6.1-5.2-3.7h6.4z"/><path d="m134 204.9 2 6.1h6.3l-5.1 3.8 1.9 6-5.1-3.7-5.2 3.7 2-6-5.2-3.8h6.4z"/><path d="m134 231.8 2 6h6.3l-5.1 3.8 1.9 6.1-5.1-3.8-5.2 3.8 2-6.1-5.2-3.8h6.4z"/><path d="m152.7 138.5 1.9 6.1h6.4l-5.1 3.8 1.9 6-5.1-3.7-5.2 3.7 2-6-5.2-3.8h6.4z"/><path d="m152.7 165.4 1.9 6h6.4l-5.1 3.8 1.9 6.1-5.1-3.8-5.2 3.8 2-6.1-5.2-3.8h6.4z"/><path d="m152.7 192.2 1.9 6.1h6.4l-5.1 3.8 1.9 6-5.1-3.7-5.2 3.7 2-6-5.2-3.8h6.4z"/><path d="m152.7 219.1 1.9 6h6.4l-5.1 3.8 1.9 6.1-5.1-3.8-5.2 3.8 2-6.1-5.2-3.8h6.4z"/><path d="m171.6 124.4 2 6.1h6.4l-5.2 3.7 2 6.1-5.2-3.8-5.2 3.8 2-6.1-5.2-3.7h6.4z"/><path d="m171.6 151.2 2 6.1h6.4l-5.2 3.8 2 6-5.2-3.7-5.2 3.7 2-6-5.2-3.8h6.4z"/><path d="m171.6 178.1 2 6.1h6.4l-5.2 3.7 2 6.1-5.2-3.8-5.2 3.8 2-6.1-5.2-3.7h6.4z"/><path d="m171.6 204.9 2 6.1h6.4l-5.2 3.8 2 6-5.2-3.7-5.2 3.7 2-6-5.2-3.8h6.4z"/><path d="m171.6 231.8 2 6h6.4l-5.2 3.8 2 6.1-5.2-3.8-5.2 3.8 2-6.1-5.2-3.8h6.4z"/><path d="m190.3 138.5 2 6.1h6.4l-5.2 3.8 2 6-5.2-3.7-5.2 3.7 2-6-5.2-3.8h6.4z"/><path d="m190.3 165.4 2 6h6.4l-5.2 3.8 2 6.1-5.2-3.8-5.2 3.8 2-6.1-5.2-3.8h6.4z"/><path d="m190.3 192.2 2 6.1h6.4l-5.2 3.8 2 6-5.2-3.7-5.2 3.7 2-6-5.2-3.8h6.4z"/><path d="m190.3 219.1 2 6h6.4l-5.2 3.8 2 6.1-5.2-3.8-5.2 3.8 2-6.1-5.2-3.8h6.4z"/><path d="m209.2 124.4 2 6.1h6.4l-5.2 3.7 2 6.1-5.2-3.8-5.1 3.8 1.9-6.1-5.1-3.7h6.4z"/><path d="m209.2 151.2 2 6.1h6.4l-5.2 3.8 2 6-5.2-3.7-5.1 3.7 1.9-6-5.1-3.8h6.4z"/><path d="m209.2 178.1 2 6.1h6.4l-5.2 3.7 2 6.1-5.2-3.8-5.1 3.8 1.9-6.1-5.1-3.7h6.4z"/><path d="m209.2 204.9 2 6.1h6.4l-5.2 3.8 2 6-5.2-3.7-5.1 3.7 1.9-6-5.1-3.8h6.4z"/><path d="m209.2 231.8 2 6h6.4l-5.2 3.8 2 6.1-5.2-3.8-5.1 3.8 1.9-6.1-5.1-3.8h6.4z"/></g></svg>