<svg enable-background="new 0 0 512 512" viewBox="0 0 512 512" xmlns="http://www.w3.org/2000/svg"><path d="m0 106.7h512v298.7h-512z" fill="#fff"/><g fill="#010101"><path d="m336.9 156.5h12.4v34.2h-12.4z" transform="matrix(.8321 -.5546 .5546 .8321 -38.6631 219.4498)"/><path d="m359.4 190.1h12.4v34.2h-12.4z" transform="matrix(.8321 -.5547 .5547 .8321 -53.5593 237.5784)"/><path d="m363.7 142.7h12.4v74.7h-12.4z" transform="matrix(.8321 -.5546 .5546 .8321 -37.761 235.3882)"/><path d="m368 135.8h12.4v34.2h-12.4z" transform="matrix(.8321 -.5547 .5547 .8321 -21.9559 233.2306)"/><path d="m390.4 169.4h12.4v34.2h-12.4z" transform="matrix(.8321 -.5547 .5547 .8321 -36.8561 251.3311)"/><path d="m151.4 284.2h12.4v74.7h-12.4z" transform="matrix(.8321 -.5546 .5546 .8321 -151.8939 141.4211)"/><path d="m124.7 298h12.4v34.2h-12.4z" transform="matrix(.8321 -.5547 .5547 .8321 -152.8013 125.5069)"/><path d="m147.1 331.7h12.4v34.2h-12.4z" transform="matrix(.8321 -.5547 .5547 .8321 -167.7044 143.6055)"/><path d="m120.3 305h12.4v74.7h-12.4z" transform="matrix(.8321 -.5546 .5546 .8321 -168.5963 127.6678)"/><path d="m120.3 184.2h74.7v12.4h-74.7z" transform="matrix(.5546 -.8321 .8321 .5546 -88.2403 215.9703)"/><path d="m104.8 173.8h74.7v12.4h-74.7z" transform="matrix(.5546 -.8321 .8321 .5546 -86.5429 198.4359)"/><path d="m89.2 163.5h74.7v12.4h-74.7z" transform="matrix(.5546 -.8321 .8321 .5546 -84.8432 180.8989)"/><path d="m326 332.2h34.2v12.4h-34.2z" transform="matrix(.5547 -.8321 .8321 .5547 -128.768 436.2368)"/><path d="m348.5 298.5h34.2v12.4h-34.2z" transform="matrix(.5546 -.8321 .8321 .5546 -90.762 439.9558)"/><path d="m341.6 342.5h34.2v12.4h-34.2z" transform="matrix(.5547 -.8321 .8321 .5547 -130.467 453.7723)"/><path d="m364 308.9h34.2v12.4h-34.2z" transform="matrix(.5547 -.8321 .8321 .5547 -92.4732 457.4502)"/><path d="m357.1 352.9h34.2v12.4h-34.2z" transform="matrix(.5547 -.8321 .8321 .5547 -132.1672 471.3084)"/><path d="m379.5 319.2h34.2v12.4h-34.2z" transform="matrix(.5547 -.8321 .8321 .5547 -94.172 474.9854)"/></g><path d="m193.9 214.6c-.3.4-.5.8-.8 1.2.2-.4.5-.8.8-1.2" fill="#b51e3a"/><path d="m297.4 193.9c-34.3-22.9-80.7-13.6-103.5 20.7-11.4 17.2-6.8 40.3 10.4 51.8 17.2 11.4 40.3 6.8 51.8-10.4 11.4-17.2 34.6-21.8 51.8-10.4s21.8 34.6 10.4 51.8c22.7-34.3 13.4-80.7-20.9-103.5" fill="#b51e3a"/><path d="m193.9 214.6c-11.4 17.2-6.8 40.3 10.4 51.8 17.2 11.4 40.3 6.8 51.8-10.4 11.4-17.2 34.6-21.8 51.8-10.4s21.8 34.6 10.4 51.8c-22.9 34.3-69.2 43.6-103.5 20.7s-43.8-69.2-20.9-103.5" fill="#273775"/></svg>