<svg enable-background="new 0 0 512 512" viewBox="0 0 512 512" xmlns="http://www.w3.org/2000/svg"><path d="m0 106.7h512v298.7h-512z" fill="#fff"/><path d="m342.8 214.7 169.2-94.8v-13.2h-11.7l-192.9 108z" fill="#bd0034"/><path d="m334.8 303.4 177.2 99.1v-19.8l-141.8-79.3z" fill="#bd0034"/><path d="m0 129.4 151.5 85.3h35.5l-187-105.2z" fill="#bd0034"/><path d="m178.9 303.4-178.9 100.2v1.8h32.3l182.1-102z" fill="#bd0034"/><g fill="#1a237b"><path d="m477 106.7h-179.3v100.4z"/><path d="m218.5 106.7h-178.5l178.5 100.4z"/><path d="m512 214.7v-68.6l-121.6 68.6z"/><path d="m512 371.1v-67.7h-121.6z"/><path d="m50.1 405.4h168.4v-94.5z"/><path d="m297.7 405.4h168.9l-168.9-94.5z"/><path d="m0 303.4v70.8l125.8-70.8z"/><path d="m0 214.7h125.8l-125.8-71z"/></g><path d="m234.4 106.7v125.7h-234.4v53.2h234.4v119.8h47.5v-119.8h230.1v-53.2h-230.1v-125.7z" fill="#bd0034"/></svg>