<svg width="16" height="20" viewBox="0 0 16 20" fill="none" xmlns="http://www.w3.org/2000/svg">
<path fill-rule="evenodd" clip-rule="evenodd" d="M8 1.53024C11.3137 1.53024 14 4.21654 14 7.53024V7.89164C14 9.2175 13.5857 10.5102 12.8151 11.5891L8.01185 18.3136C8.00604 18.3218 7.99396 18.3218 7.98815 18.3136L3.18491 11.5891C2.41427 10.5102 2 9.2175 2 7.89164L2 7.53024C2 4.21654 4.68629 1.53024 8 1.53024ZM10.6351 6.96456C10.4521 6.16262 9.91385 5.48767 9.17275 5.13078C8.43164 4.77388 7.56835 4.77388 6.82725 5.13078C6.08615 5.48767 5.5479 6.16262 5.36486 6.96456C5.18182 7.7665 5.37392 8.60814 5.88678 9.25125C6.39964 9.89435 7.17744 10.2689 8 10.2689C8.82256 10.2689 9.60036 9.89435 10.1132 9.25125C10.6261 8.60814 10.8182 7.7665 10.6351 6.96456Z" fill="#08B783"/>
<path d="M12.8151 11.5891L11.5945 10.7173V10.7173L12.8151 11.5891ZM8.01185 18.3136L9.23245 19.1855L9.23245 19.1855L8.01185 18.3136ZM7.98815 18.3136L6.76755 19.1855L6.76755 19.1855L7.98815 18.3136ZM3.18491 11.5891L1.96431 12.461L1.96431 12.461L3.18491 11.5891ZM9.17275 5.13078L9.82357 3.77932L9.82357 3.77932L9.17275 5.13078ZM10.6351 6.96456L9.17274 7.29834L9.17275 7.29834L10.6351 6.96456ZM5.36486 6.96456L3.90247 6.63078H3.90247L5.36486 6.96456ZM5.88678 9.25125L4.71403 10.1865H4.71403L5.88678 9.25125ZM10.1132 9.25125L11.286 10.1865H11.286L10.1132 9.25125ZM15.5 7.53024C15.5 3.38811 12.1421 0.0302429 8 0.0302429V3.03024C10.4853 3.03024 12.5 5.04496 12.5 7.53024H15.5ZM15.5 7.89164V7.53024H12.5V7.89164H15.5ZM14.0357 12.461C14.988 11.1277 15.5 9.53013 15.5 7.89164H12.5C12.5 8.90486 12.1834 9.89277 11.5945 10.7173L14.0357 12.461ZM9.23245 19.1855L14.0357 12.461L11.5945 10.7173L6.79125 17.4418L9.23245 19.1855ZM6.76755 19.1855C7.37159 20.0312 8.62841 20.0312 9.23245 19.1855L6.79126 17.4418C7.38368 16.6124 8.61632 16.6124 9.20874 17.4418L6.76755 19.1855ZM1.96431 12.461L6.76755 19.1855L9.20875 17.4418L4.40551 10.7173L1.96431 12.461ZM0.5 7.89164C0.5 9.53013 1.01196 11.1277 1.96431 12.461L4.40551 10.7173C3.81659 9.89277 3.5 8.90486 3.5 7.89164H0.5ZM0.5 7.53024L0.5 7.89164H3.5V7.53024H0.5ZM8 0.0302429C3.85786 0.0302429 0.5 3.38811 0.5 7.53024H3.5C3.5 5.04496 5.51472 3.03024 8 3.03024V0.0302429ZM8.52192 6.48223C8.85174 6.64106 9.09129 6.94144 9.17274 7.29834L12.0975 6.63078C11.8129 5.3838 10.976 4.33428 9.82357 3.77932L8.52192 6.48223ZM7.47808 6.48223C7.8079 6.3234 8.1921 6.3234 8.52192 6.48223L9.82357 3.77932C8.67119 3.22437 7.32881 3.22437 6.17643 3.77932L7.47808 6.48223ZM6.82725 7.29834C6.90871 6.94144 7.14825 6.64106 7.47808 6.48223L6.17643 3.77932C5.02404 4.33428 4.18708 5.3838 3.90247 6.63078L6.82725 7.29834ZM7.05953 8.31601C6.83128 8.0298 6.74579 7.65523 6.82725 7.29834L3.90247 6.63078C3.61785 7.87776 3.91656 9.18648 4.71403 10.1865L7.05953 8.31601ZM8 8.76892C7.63392 8.76892 7.28777 8.60222 7.05953 8.31601L4.71403 10.1865C5.51151 11.1865 6.72095 11.7689 8 11.7689L8 8.76892ZM8.94047 8.31601C8.71222 8.60222 8.36607 8.76892 8 8.76892L8 11.7689C9.27905 11.7689 10.4885 11.1865 11.286 10.1865L8.94047 8.31601ZM9.17275 7.29834C9.2542 7.65523 9.16871 8.0298 8.94047 8.31601L11.286 10.1865C12.0834 9.18648 12.3821 7.87776 12.0975 6.63077L9.17275 7.29834Z" fill="#08B783"/>
</svg>
