<?xml version="1.0" ?>
<!DOCTYPE svg  PUBLIC '-//W3C//DTD SVG 1.1//EN'  'http://www.w3.org/Graphics/SVG/1.1/DTD/svg11.dtd'>
<!-- Uploaded to: SVG Repo, www.svgrepo.com, Generator: SVG Repo Mixer Tools -->
<svg fill="#000000" width="800px" height="800px" viewBox="0 0 48 48" enable-background="new 0 0 48 48" id="Layer_1" version="1.1" xml:space="preserve" xmlns="http://www.w3.org/2000/svg" xmlns:xlink="http://www.w3.org/1999/xlink">
<g>
<g>
<path d="M23.838,43.27c-0.328,0-0.65-0.162-0.842-0.459c-2.199-3.415-4.709-6.971-8.157-9.842    c-1.436-1.195-2.807-2.39-3.789-3.854c-2.14-3.185-3.942-6.705-2.661-10.862c2.504-8.122,9.799-12.411,18.15-10.672    c7.113,1.479,11.432,8.288,11.497,14.017c0.051,4.458-1.717,7.896-5.729,11.147c-2.907,2.354-5.862,4.97-7.253,8.752    c-0.061,0.165-0.16,0.304-0.284,0.411c0.168,0.434,0.015,0.939-0.392,1.201C24.212,43.218,24.024,43.27,23.838,43.27z     M22.85,9.191c-5.914,0-10.668,3.552-12.549,9.651c-0.977,3.168,0.257,5.953,2.41,9.158c0.836,1.246,2.038,2.291,3.408,3.432    c3.041,2.531,5.43,5.623,7.398,8.533c1.656-3.797,4.619-6.414,7.532-8.773c3.54-2.869,5.032-5.73,4.988-9.571    c-0.057-4.938-3.776-10.807-9.903-12.081C25.009,9.305,23.911,9.191,22.85,9.191z"/>
</g>
<g>
<path d="M19.135,28.313c-0.201,0-0.401-0.061-0.573-0.181c-0.3-0.21-0.462-0.567-0.421-0.932l0.456-4.052l-3.247-2.976    c-0.29-0.265-0.397-0.676-0.274-1.049c0.123-0.374,0.453-0.64,0.843-0.682l3.823-0.413l3.092-3.248    c0.382-0.4,1.015-0.414,1.415-0.035c0.005,0.005,0.01,0.01,0.015,0.014c0.429,0.063,0.782,0.401,0.845,0.852    c0.247,1.78,1.004,1.92,3.154,2.064c0.824,0.055,1.759,0.117,2.685,0.375c0.377,0.105,0.657,0.42,0.719,0.807    c0.062,0.386-0.107,0.773-0.434,0.989l-3.434,2.283c0.005,0.016,0.011,0.031,0.016,0.047l1.448,4.809    c0.109,0.363,0.004,0.756-0.271,1.016c-0.274,0.261-0.672,0.342-1.029,0.213l-4.852-1.77l-3.527,1.764    C19.441,28.277,19.288,28.313,19.135,28.313z M23.047,24.356c0.115,0,0.231,0.02,0.343,0.061l3.382,1.233l-0.811-2.688l-0.36-0.41    c-0.191-0.216-0.28-0.505-0.242-0.792c0.038-0.287,0.197-0.542,0.438-0.703l2.109-1.402c-1.707-0.118-3.692-0.342-4.498-2.579    l-2.472,2.596c-0.163,0.171-0.381,0.279-0.616,0.305l-1.99,0.215l1.992,1.825c0.235,0.216,0.354,0.532,0.318,0.849l-0.307,2.728    l2.266-1.132C22.741,24.391,22.894,24.356,23.047,24.356z"/>
</g>
<g>
<path d="M23.19,32.506c-2.518,0-4.925-0.908-6.724-2.671c-3.889-3.81-4.838-7.29-3.385-12.413    c1.248-4.401,4.739-5.964,7.913-7.083c0.157-0.056,0.317-0.069,0.473-0.047c0.34-0.049,0.714-0.02,1.074-0.033    c0.736-0.026,1.496-0.055,2.271,0.054c5.342,0.75,11.284,4.264,10.453,11.7c-0.573,5.131-3.743,7.492-6.77,9.124    C26.79,32.055,24.962,32.506,23.19,32.506z M21.51,12.277c-3.366,1.204-5.627,2.593-6.506,5.69    c-1.251,4.412-0.502,7.144,2.861,10.438c2.437,2.387,6.327,2.777,9.681,0.969c3.691-1.99,5.352-4.188,5.73-7.585    c0.867-7.75-7.131-9.271-8.742-9.498c-0.599-0.083-1.241-0.061-1.92-0.035C22.245,12.271,21.867,12.309,21.51,12.277z"/>
</g>
</g>
</svg>