<?xml version="1.0" encoding="iso-8859-1"?>
<!-- Uploaded to: SVG Repo, www.svgrepo.com, Generator: SVG Repo Mixer Tools -->
<svg fill="#000000" height="800px" width="800px" version="1.1" id="Layer_1" xmlns="http://www.w3.org/2000/svg" xmlns:xlink="http://www.w3.org/1999/xlink" 
	 viewBox="0 0 512 512" xml:space="preserve">
<g transform="translate(1)">
	<g>
		<path d="M476.867,296.885v-57.952V63.147V8.533c0-5.12-3.413-8.533-8.533-8.533H413.72H178.2h-68.267H7.533
			C2.413,0-1,3.413-1,8.533v102.4V179.2v235.52v54.613c0,5.12,3.413,8.533,8.533,8.533h54.613h233.738
			C318.713,499.056,349.309,512,383,512c70.827,0,128-57.173,128-128C511,350.309,498.056,319.713,476.867,296.885z
			 M255.102,388.901c0.008,0.203,0.014,0.405,0.023,0.608c1.125,26.716,10.386,51.284,25.386,71.292H82.627L324.12,219.307
			l37.784,38.424C301.159,267.757,255,320.362,255,384C255,385.642,255.041,387.274,255.102,388.901z M272.102,386.805
			c-0.023-0.932-0.035-1.867-0.035-2.805c0-61.44,49.493-110.933,110.933-110.933c0.938,0,1.873,0.012,2.805,0.035
			c25.624,0.643,49.859,10.094,69.443,26.703L298.805,456.248C282.196,436.664,272.745,412.429,272.102,386.805z M459.8,218.753
			l-68.267-66.859L459.8,83.627V218.753z M186.733,17.067H393.24L186.733,223.573V17.067z M101.4,17.067V102.4H16.067V17.067H101.4z
			 M16.067,187.733H101.4v121.173L16.067,394.24V187.733z M16.067,460.8v-41.813l99.84-100.693c1.707-1.707,2.56-3.413,2.56-5.973
			V179.2c0-5.12-3.413-8.533-8.533-8.533H16.067v-51.2h93.867c5.12,0,8.533-3.413,8.533-8.533V17.067h51.2v226.987
			c0,3.413,1.707,6.827,5.12,7.68c3.413,1.707,6.827,0.853,9.387-1.707l233.813-232.96H459.8V58.88l-87.04,87.04
			c-1.707,1.707-2.56,3.413-2.56,5.973c0,2.56,0.853,4.267,2.56,5.973l87.04,84.48v39.164
			c-15.891-11.914-34.66-20.205-55.096-23.679c-0.504-0.088-1.009-0.168-1.514-0.25c-0.608-0.096-1.218-0.185-1.829-0.272
			c-4.753-0.697-9.554-1.116-14.388-1.243c-0.632-0.019-1.265-0.031-1.899-0.041c-0.407-0.004-0.812-0.026-1.22-0.026l-53.76-54.613
			c-1.707-1.707-3.413-2.56-5.973-2.56s-4.267,0.853-5.973,2.56L58.733,460.8H16.067z M383,494.933
			c-27.667,0-52.909-10.04-72.302-26.684l156.552-156.552c16.644,19.394,26.684,44.635,26.684,72.302
			C493.933,445.44,444.44,494.933,383,494.933z"/>
	</g>
</g>
</svg>