<?xml version="1.0" encoding="iso-8859-1"?>
<!-- Uploaded to: SVG Repo, www.svgrepo.com, Generator: SVG Repo Mixer Tools -->
<svg fill="#000000" height="800px" width="800px" version="1.1" id="Layer_1" xmlns="http://www.w3.org/2000/svg" xmlns:xlink="http://www.w3.org/1999/xlink" 
	 viewBox="0 0 512 512" xml:space="preserve">
<g>
	<g>
		<path d="M256,112c-48.112,0-87.248,39.136-87.248,87.248c0,7.92,1.056,15.76,3.152,23.328c0.832,2.976,1.808,5.904,2.912,8.72
			l2.624,5.936l8.08,14.928l144.288-99.2C314.368,128.4,287.104,112,256,112z"/>
	</g>
</g>
<g>
	<g>
		<path d="M337.136,167.36L193.2,266.32L256,382.384l78.672-145.392l2.56-5.808c0.976-2.464,2.016-5.52,2.864-8.608
			c2.096-7.568,3.152-15.424,3.152-23.328C343.248,187.984,341.024,177.248,337.136,167.36z"/>
	</g>
</g>
<g>
	<g>
		<path d="M256,0C114.608,0,0,114.608,0,256s114.608,256,256,256s256-114.608,256-256S397.392,0,256,0z M355.504,226.848
			c-1.024,3.68-2.24,7.28-3.632,10.784l-2.816,6.416L256,416l-92.928-171.712l-3.136-7.12c-1.328-3.36-2.48-6.8-3.456-10.32
			c-2.432-8.784-3.744-18.048-3.744-27.6C152.752,142.224,198.976,96,256,96s103.248,46.224,103.248,103.248
			C359.248,208.816,357.936,218.064,355.504,226.848z"/>
	</g>
</g>
</svg>